<svg width="340" height="340" viewBox="0 0 340 340" fill="none"
  xmlns="http://www.w3.org/2000/svg">
  <circle cx="170" cy="170" r="170" fill="#C49FD5"/>
  <g clip-path="url(#clip0_60_10)">
    <path d="M177.753 60.946C158.626 59.9296 159.713 73.09 173.793 75.8004L174.673 75.9368C208.073 81.5688 236.273 106.803 236.273 141.602C236.163 154.042 232.564 166.202 225.883 176.696C219.203 187.191 209.71 195.599 198.486 200.963C187.261 206.328 174.756 208.433 162.394 207.04C150.032 205.647 138.309 200.811 128.561 193.082L122.361 225.44L144.216 266.21L212.315 268.789L217.155 268.586C235.917 259.796 251.791 245.848 262.919 228.371C274.048 210.893 279.972 190.61 280 169.89C279.93 112.162 234.852 64.884 177.753 60.946Z" fill="black"/>
    <path opacity="0.5" d="M177.753 60.946C158.626 59.9296 159.713 73.09 173.793 75.8004L174.673 75.9368C208.073 81.5688 236.273 106.803 236.273 141.602C236.163 154.042 232.564 166.202 225.883 176.696C219.203 187.191 209.71 195.599 198.486 200.963C187.261 206.328 174.756 208.433 162.394 207.04C150.032 205.647 138.309 200.811 128.561 193.082L122.361 225.44L144.216 266.21L212.315 268.789L217.155 268.586C235.917 259.796 251.791 245.848 262.919 228.371C274.048 210.893 279.972 190.61 280 169.89C279.93 112.162 234.852 64.884 177.753 60.946Z" fill="black"/>
    <path d="M230.482 261.08C177.344 287.383 105.214 234.196 169.965 169.824C234.715 105.514 132.877 30.8984 78.1676 109.72C66.2907 127.537 59.9679 148.477 60 169.89C60 230.196 109.245 279.12 169.965 279.12C191.466 279.153 212.505 272.881 230.478 261.08H230.482Z" fill="black"/>
  </g>
  <defs>
    <clipPath id="clip0_60_10">
      <rect width="220" height="220" fill="white" transform="translate(60 60)"/>
    </clipPath>
  </defs>
</svg>
