<?xml version="1.0" encoding="UTF-8"?>
<svg version="1.1" xmlns="http://www.w3.org/2000/svg" width="560" height="560">
<path d="M0 0 C1.00417969 0.80953125 2.00835937 1.6190625 3.04296875 2.453125 C4.01621094 3.22140625 4.98945313 3.9896875 5.9921875 4.78125 C13.33358727 10.75964982 20.07792598 17.28210568 26.79296875 23.953125 C27.66824219 24.8191333 28.54351562 25.6851416 29.4453125 26.57739258 C71.2976235 68.63152542 96.0440127 125.98520239 103.04296875 184.453125 C103.13868164 185.24211182 103.23439453 186.03109863 103.33300781 186.84399414 C104.27634784 195.71527868 104.28649557 204.6039212 104.29296875 213.515625 C104.29398087 214.7730954 104.29398087 214.7730954 104.29501343 216.05596924 C104.21182862 281.46410218 80.71184226 346.7808209 36.12109375 395.19140625 C34.2356794 397.24338916 32.41526842 399.33464454 30.60546875 401.453125 C23.93105918 409.07882973 16.72932989 415.9294173 8.80859375 422.24609375 C7.00794422 423.68305277 5.22540361 425.14310043 3.46484375 426.62890625 C-43.64893091 466.33707262 -105.39221663 486.6570924 -166.58203125 486.703125 C-167.39417084 486.70379974 -168.20631042 486.70447449 -169.0430603 486.70516968 C-222.19087313 486.63549624 -276.25999235 471.29065101 -319.95703125 440.453125 C-320.69937012 439.92960449 -321.44170898 439.40608398 -322.20654297 438.86669922 C-332.00308815 431.90397914 -341.23999046 424.73581153 -349.95703125 416.453125 C-351.30501449 415.27931937 -352.65881896 414.11215068 -354.01953125 412.953125 C-361.63450654 406.30167719 -368.46635874 399.10680511 -374.76171875 391.19921875 C-376.15334192 389.45845168 -377.57244078 387.73901772 -379.02734375 386.05078125 C-390.80385047 372.29703816 -400.66541187 356.52833519 -408.95703125 340.453125 C-409.35341797 339.68629395 -409.74980469 338.91946289 -410.15820312 338.12939453 C-429.69260826 299.84531271 -439.17571634 258.20991648 -439.20703125 215.328125 C-439.20770599 214.4926413 -439.20838074 213.65715759 -439.20907593 212.7963562 C-439.11938871 142.4757116 -411.94560708 75.98732396 -362.23706055 26.36230469 C-330.26479748 -4.853911 -289.44958244 -20.16058549 -245.109375 -19.76171875 C-230.43917827 -19.45032763 -216.70463446 -16.58621091 -202.95703125 -11.546875 C-201.91699951 -11.16789062 -201.91699951 -11.16789062 -200.85595703 -10.78125 C-168.82426273 1.11852808 -141.2246529 24.3947015 -126.671875 55.6015625 C-115.36619313 80.68780187 -111.32047357 110.59549573 -118.95703125 137.453125 C-119.25504639 138.50983398 -119.25504639 138.50983398 -119.55908203 139.58789062 C-122.80984204 150.83771176 -127.29845655 161.21639027 -132.95703125 171.453125 C-133.30636719 172.08847168 -133.65570313 172.72381836 -134.015625 173.37841797 C-143.74575889 190.84721604 -156.76517104 205.38785695 -170.91796875 219.390625 C-174.09847724 222.60769106 -177.0255294 226.01024555 -179.95703125 229.453125 C-180.76785156 230.37480469 -181.57867187 231.29648437 -182.4140625 232.24609375 C-198.39646699 250.54331178 -216.67695885 274.25762838 -221.95703125 298.453125 C-220.25546875 298.824375 -220.25546875 298.824375 -218.51953125 299.203125 C-215.35824678 299.89900523 -212.20921836 300.63193397 -209.06640625 301.40625 C-208.00764282 301.66390137 -208.00764282 301.66390137 -206.92749023 301.92675781 C-205.5428701 302.26449296 -204.15943884 302.6071623 -202.77758789 302.95605469 C-173.43366426 310.06761623 -141.22332045 308.03589706 -112.95703125 297.453125 C-111.93585205 297.07631592 -111.93585205 297.07631592 -110.89404297 296.69189453 C-89.43727867 288.65360683 -70.80829292 276.7548393 -54.38085938 260.82568359 C-53.12678518 259.61676639 -51.84835932 258.43321928 -50.56640625 257.25390625 C-28.81890477 236.71894532 -16.00807821 208.0416116 -8.95703125 179.453125 C-8.68584473 178.39230713 -8.68584473 178.39230713 -8.40917969 177.31005859 C0.36744698 141.54923084 -6.66079407 99.64013512 -25.31005859 68.16992188 C-51.82856915 25.33025274 -93.88625129 -3.36656629 -142.82887268 -14.98188782 C-147.48012085 -16.06612171 -152.13441979 -17.12225202 -156.80639648 -18.11401367 C-167.25767947 -20.38208117 -175.70436346 -23.41876258 -182.83203125 -31.734375 C-184.5087727 -35.92622861 -184.66635775 -40.09619894 -183.95703125 -44.546875 C-181.94220419 -49.0785399 -179.56111166 -50.68580512 -175.14453125 -52.796875 C-174.12746094 -53.29703125 -173.11039062 -53.7971875 -172.0625 -54.3125 C-121.11382184 -74.56379849 -38.76941833 -30.8746433 0 0 Z " fill="#165AFE" transform="translate(446.95703125,65.546875)"/>
<path d="M0 0 C1.00417969 0.80953125 2.00835937 1.6190625 3.04296875 2.453125 C4.01621094 3.22140625 4.98945313 3.9896875 5.9921875 4.78125 C13.33358727 10.75964982 20.07792598 17.28210568 26.79296875 23.953125 C27.66824219 24.8191333 28.54351562 25.6851416 29.4453125 26.57739258 C71.2976235 68.63152542 96.0440127 125.98520239 103.04296875 184.453125 C103.13868164 185.24211182 103.23439453 186.03109863 103.33300781 186.84399414 C104.27634784 195.71527868 104.28649557 204.6039212 104.29296875 213.515625 C104.29364349 214.3539386 104.29431824 215.1922522 104.29501343 216.05596924 C104.21182862 281.46410218 80.71184226 346.7808209 36.12109375 395.19140625 C34.2356794 397.24338916 32.41526842 399.33464454 30.60546875 401.453125 C23.12313836 410.00190248 14.91516199 417.38523474 6.04296875 424.453125 C4.20857521 425.97267937 2.3752392 427.49351129 0.54296875 429.015625 C-1.2860695 430.50009939 -3.11937365 431.97933408 -4.95703125 433.453125 C-5.84132813 434.16855469 -6.725625 434.88398438 -7.63671875 435.62109375 C-13.73473905 440.33159349 -19.65088471 443.3470185 -26.95166016 445.77734375 C-29.22930672 446.54487792 -31.48838376 447.35835037 -33.75 448.171875 C-75.24477322 462.83752533 -119.51900129 462.39344653 -159.66796875 443.55078125 C-190.05805192 428.87059618 -213.49594717 405.72295935 -225.26953125 373.90625 C-229.01329038 362.39969621 -230.34801477 351.02236743 -230.33203125 338.953125 C-230.33114502 337.73858643 -230.33025879 336.52404785 -230.3293457 335.27270508 C-230.15902781 322.14785242 -228.48334363 309.43999742 -222.95703125 297.453125 C-222.00828125 297.76765625 -221.05953125 298.0821875 -220.08203125 298.40625 C-185.30002527 309.52759135 -147.40614648 310.35071943 -112.95703125 297.453125 C-111.93585205 297.07631592 -111.93585205 297.07631592 -110.89404297 296.69189453 C-89.43727867 288.65360683 -70.80829292 276.7548393 -54.38085938 260.82568359 C-53.12678518 259.61676639 -51.84835932 258.43321928 -50.56640625 257.25390625 C-28.81890477 236.71894532 -16.00807821 208.0416116 -8.95703125 179.453125 C-8.68584473 178.39230713 -8.68584473 178.39230713 -8.40917969 177.31005859 C0.36744698 141.54923084 -6.66079407 99.64013512 -25.31005859 68.16992188 C-51.82856915 25.33025274 -93.88625129 -3.36656629 -142.82887268 -14.98188782 C-147.48012085 -16.06612171 -152.13441979 -17.12225202 -156.80639648 -18.11401367 C-167.25767947 -20.38208117 -175.70436346 -23.41876258 -182.83203125 -31.734375 C-184.5087727 -35.92622861 -184.66635775 -40.09619894 -183.95703125 -44.546875 C-181.94220419 -49.0785399 -179.56111166 -50.68580512 -175.14453125 -52.796875 C-174.12746094 -53.29703125 -173.11039062 -53.7971875 -172.0625 -54.3125 C-121.11382184 -74.56379849 -38.76941833 -30.8746433 0 0 Z " fill="#6CAFFF" transform="translate(446.95703125,65.546875)"/>
</svg>
