<svg width="340" height="340" viewBox="0 0 340 340" fill="none"
  xmlns="http://www.w3.org/2000/svg">
  <circle cx="170" cy="170" r="170" fill="#C49FD5"/>
  <ellipse cx="140.717" cy="133.958" rx="47.1555" ry="43.0412" fill="#14161A"/>
  <path d="M101.79 109.272L166.923 158.131L178.062 160.225L169 171L160.022 180.797L156.5 186L153.5 191.5L152 195.5L151.794 198.519L153.693 199.152L156.225 199.785L158.44 200.418L162.555 201.051L166.036 201.051L170.15 201.051L174.897 201.051L177.113 201.051L180.594 200.735L184.708 199.785L187.873 199.152L190.5 198L193.5 196.5L196.5 195L199.899 192.823L206.862 187.759L213.824 180.164L218.255 174.151L220.154 169.72L224.585 156.744L225.534 150.098L225.534 144.085L225.218 138.072L224.268 132.375L222.685 128.261L220.786 123.831L218.571 119.716L216.356 116.235L213.507 112.437L210.659 109.589L207.811 106.741L203.063 102.943L194.519 97.2462L186.607 93.765L181.543 92.1826L176.479 91.2331L171.099 90.2837L168.251 89.0178L166.352 87.1189L165.402 85.5365L164.77 83.0047L165.719 80.7893L168.251 78.8904L170.783 77.941L174.264 77.6245L180.91 77.941L188.189 79.5234L197.367 82.0552L204.646 84.5871L212.874 88.3848L223.318 94.7144L228.382 98.5121L231.547 101.044L234.395 104.209L238.193 108.007L242.307 112.754L248.954 123.197L251.169 126.679L253.701 131.426L255.6 136.49L257.499 142.186L259.081 146.617L260.98 154.845L261.929 159.593L262.246 163.074L262.562 170.669L262.562 176.366L262.562 178.898L262.246 181.429L260.663 188.709L259.397 194.089L257.498 198.836L254.333 207.381L250.852 214.66L246.421 221.622L241.674 228.268L235.978 234.598L223.635 245.042L214.774 250.739L204.963 255.169L194.519 259.284L179.644 261.815L168.567 262.448L161.921 261.815L155.275 260.866L146.73 258.651L139.451 256.752L130.273 253.27L120.463 247.574L111.285 240.611L104.006 234.282L96.4101 225.42L90.3969 216.875L86.4999 209L83.4999 202.5L81.219 195.038L78.9999 187.5L77.4213 180L77.4213 173.201L78.0542 160.858L80.5861 148.199L84.0668 136.489L87.8651 128.261L92.2958 120.665L101.79 109.272Z" fill="#14161A"/>
  <path d="M253.5 209.5C233.5 257.5 188.5 264 170 264C142 264 82 247 78 175.5C78 160.588 153.984 210 170 210C186.016 210 289 131 253.5 209.5Z" fill="#14161A"/>
  <path d="M181.5 153C165.5 180 131.554 201 112.5 201C97.5 195 72.5 205.5 78 163.5C82.2559 131 103.5 99 123.5 94.5C165.5 79.5 200.57 120.819 181.5 153Z" fill="#14161A"/>
  <path d="M220 175.5C220 177.709 192.703 213.002 180 213.002C167.297 213.002 151.5 200.709 151.5 198.5C161.5 202 174 201.5 180 201C203 195 203.5 189 220 175.5Z" fill="#14161A"/>
</svg>
    